<svg width="16" height="16" viewBox="0 0 16 16" fill="none" xmlns="http://www.w3.org/2000/svg">
<path d="M10.6663 1.33398V4.00065M5.33301 1.33398V4.00065" stroke="currentColor" stroke-linecap="round" stroke-linejoin="round"/>
<path d="M14 7.99935C14 5.48519 14 4.22812 13.2189 3.44706C12.4379 2.66602 11.1808 2.66602 8.66667 2.66602H7.33333C4.81917 2.66602 3.5621 2.66602 2.78105 3.44706C2 4.22812 2 5.48519 2 7.99935V9.33268C2 11.8468 2 13.1039 2.78105 13.8849C3.5621 14.666 4.81917 14.666 7.33333 14.666" stroke="currentColor" stroke-linecap="round" stroke-linejoin="round"/>
<path d="M2 6.66602H14" stroke="currentColor" stroke-linecap="round" stroke-linejoin="round"/>
<path d="M12.1784 12.4681L11.3337 12.0007V10.8452M14.0003 12.0007C14.0003 13.4734 12.8064 14.6673 11.3337 14.6673C9.86093 14.6673 8.66699 13.4734 8.66699 12.0007C8.66699 10.5279 9.86093 9.33398 11.3337 9.33398C12.8064 9.33398 14.0003 10.5279 14.0003 12.0007Z" stroke="currentColor" stroke-linecap="round" stroke-linejoin="round"/>
</svg>
