<svg width="40" height="40" viewBox="0 0 40 40" fill="none" xmlns="http://www.w3.org/2000/svg">
<path d="M22.8172 32.4278C22.5 31.6622 22.5 30.6915 22.5 28.75C22.5 26.8085 22.5 25.8378 22.8172 25.0722C23.24 24.0512 24.0512 23.24 25.0722 22.8172C25.8378 22.5 26.8085 22.5 28.75 22.5C30.6915 22.5 31.6622 22.5 32.4278 22.8172C33.4488 23.24 34.26 24.0512 34.6828 25.0722C35 25.8378 35 26.8085 35 28.75C35 30.6915 35 31.6622 34.6828 32.4278C34.26 33.4488 33.4488 34.26 32.4278 34.6828C31.6622 35 30.6915 35 28.75 35C26.8085 35 25.8378 35 25.0722 34.6828C24.0512 34.26 23.24 33.4488 22.8172 32.4278Z" stroke="currentColor" stroke-width="2.5" stroke-linecap="square" stroke-linejoin="round"/>
<path d="M22.8172 14.9278C22.5 14.1621 22.5 13.1914 22.5 11.25C22.5 9.30858 22.5 8.33787 22.8172 7.57215C23.24 6.5512 24.0512 5.74007 25.0722 5.31717C25.8378 5 26.8085 5 28.75 5C30.6915 5 31.6622 5 32.4278 5.31717C33.4488 5.74007 34.26 6.5512 34.6828 7.57215C35 8.33787 35 9.30858 35 11.25C35 13.1914 35 14.1621 34.6828 14.9278C34.26 15.9488 33.4488 16.76 32.4278 17.1828C31.6622 17.5 30.6915 17.5 28.75 17.5C26.8085 17.5 25.8378 17.5 25.0722 17.1828C24.0512 16.76 23.24 15.9488 22.8172 14.9278Z" stroke="currentColor" stroke-width="2.5" stroke-linecap="square" stroke-linejoin="round"/>
<path d="M5.31717 32.4278C5 31.6622 5 30.6915 5 28.75C5 26.8085 5 25.8378 5.31717 25.0722C5.74007 24.0512 6.5512 23.24 7.57215 22.8172C8.33787 22.5 9.30858 22.5 11.25 22.5C13.1914 22.5 14.1621 22.5 14.9278 22.8172C15.9488 23.24 16.76 24.0512 17.1828 25.0722C17.5 25.8378 17.5 26.8085 17.5 28.75C17.5 30.6915 17.5 31.6622 17.1828 32.4278C16.76 33.4488 15.9488 34.26 14.9278 34.6828C14.1621 35 13.1914 35 11.25 35C9.30858 35 8.33787 35 7.57215 34.6828C6.5512 34.26 5.74007 33.4488 5.31717 32.4278Z" stroke="currentColor" stroke-width="2.5" stroke-linecap="square" stroke-linejoin="round"/>
<path d="M5.31717 14.9278C5 14.1621 5 13.1914 5 11.25C5 9.30858 5 8.33787 5.31717 7.57215C5.74007 6.5512 6.5512 5.74007 7.57215 5.31717C8.33787 5 9.30858 5 11.25 5C13.1914 5 14.1621 5 14.9278 5.31717C15.9488 5.74007 16.76 6.5512 17.1828 7.57215C17.5 8.33787 17.5 9.30858 17.5 11.25C17.5 13.1914 17.5 14.1621 17.1828 14.9278C16.76 15.9488 15.9488 16.76 14.9278 17.1828C14.1621 17.5 13.1914 17.5 11.25 17.5C9.30858 17.5 8.33787 17.5 7.57215 17.1828C6.5512 16.76 5.74007 15.9488 5.31717 14.9278Z" stroke="currentColor" stroke-width="2.5" stroke-linecap="square" stroke-linejoin="round"/>
</svg>
