<svg width="64" height="64" viewBox="0 0 64 64" fill="none" xmlns="http://www.w3.org/2000/svg">
<path d="M0 24C0 10.7452 10.7452 0 24 0H56C60.4183 0 64 3.58172 64 8V40C64 53.2548 53.2548 64 40 64H8C3.58172 64 0 60.4183 0 56V24Z" fill="#1A73E8"/>
<path d="M20.7252 16.5361C20.9384 16.5345 21.1516 16.5329 21.3712 16.5312C21.6048 16.5306 21.8383 16.53 22.0789 16.5294C22.3252 16.5279 22.5715 16.5265 22.8253 16.5249C23.642 16.5205 24.4588 16.5179 25.2756 16.5157C25.5545 16.5148 25.8333 16.5138 26.1207 16.5129C27.4447 16.5087 28.7686 16.5055 30.0926 16.5036C31.6182 16.5014 33.1437 16.4955 34.6692 16.4864C35.9926 16.4789 37.316 16.4762 38.6394 16.4753C39.2012 16.4742 39.7631 16.4716 40.3249 16.4675C41.112 16.462 41.8989 16.4622 42.6861 16.4638C42.9173 16.4609 43.1486 16.458 43.3869 16.4551C44.7677 16.465 45.8792 16.6326 47.015 17.465C47.8145 18.3799 48.0562 19.2911 47.9985 20.4969C47.5943 23.0474 46.2724 25.0397 44.229 26.579C42.5267 27.7519 40.5653 27.8023 38.5634 27.8051C38.3742 27.8063 38.1849 27.8074 37.99 27.8085C37.3682 27.8118 36.7465 27.8133 36.1247 27.8145C35.8044 27.8155 35.8044 27.8155 35.4777 27.8165C34.3483 27.8198 33.2189 27.8219 32.0895 27.8229C30.9269 27.8241 29.7643 27.8295 28.6017 27.8358C27.7038 27.84 26.806 27.8412 25.9082 27.8415C25.4797 27.8422 25.0512 27.844 24.6228 27.8469C24.0219 27.8508 23.4213 27.8503 22.8204 27.8489C22.6458 27.851 22.4712 27.853 22.2913 27.8551C20.3906 27.8409 18.7704 27.315 17.3866 25.9919C16.1862 24.5585 15.9373 22.9195 16.0041 21.0902C16.2258 19.491 16.8741 18.3301 18.147 17.339C19.0015 16.7522 19.6913 16.5414 20.7252 16.5361Z" fill="white"/>
<path d="M22.1492 35.999C22.3351 35.9974 22.521 35.9958 22.7125 35.9941C22.9145 35.9935 23.1166 35.9929 23.3247 35.9923C23.539 35.9908 23.7533 35.9893 23.974 35.9878C24.6827 35.9834 25.3913 35.9808 26.0999 35.9786C26.3421 35.9776 26.5842 35.9767 26.8337 35.9758C28.1148 35.9711 29.3959 35.9679 30.677 35.9658C32.0002 35.9633 33.3233 35.9556 34.6465 35.9467C35.6642 35.9409 36.6819 35.939 37.6996 35.9382C38.1874 35.9371 38.6752 35.9345 39.163 35.9304C39.8456 35.9249 40.528 35.9251 41.2106 35.9267C41.4117 35.9238 41.6129 35.9209 41.8201 35.918C43.0801 35.9284 43.7589 36.1081 44.7287 36.9279C45.4405 37.9742 45.2989 39.1937 45.0725 40.3903C44.4537 42.7156 43.1455 44.9771 41.0318 46.2169C38.4474 47.4816 35.7865 47.5262 32.9669 47.5233C32.6137 47.5242 32.2604 47.5252 31.9072 47.5262C31.1711 47.5279 30.435 47.5278 29.6989 47.5266C28.7602 47.5253 27.8217 47.5292 26.8831 47.5343C26.1551 47.5377 25.4271 47.5378 24.6992 47.5371C24.3532 47.5373 24.0073 47.5384 23.6613 47.5407C21.4914 47.5532 19.6322 47.518 17.7787 46.2939C16.483 44.938 15.965 43.3601 15.9954 41.5042C16.1914 39.7625 17.2389 38.2965 18.5207 37.1519C19.6584 36.4161 20.7902 36.0071 22.1492 35.999Z" fill="white"/>
</svg>
