<svg width="40" height="40" viewBox="0 0 40 40" fill="none" xmlns="http://www.w3.org/2000/svg">
<path d="M25.8337 30C25.8337 33.2217 23.222 35.8333 20.0003 35.8333C16.7787 35.8333 14.167 33.2217 14.167 30" stroke="currentColor" stroke-width="2.5" stroke-linecap="round" stroke-linejoin="round"/>
<path d="M32.0518 30.0003H7.94812C6.31992 30.0003 5 28.6803 5 27.0522C5 26.2703 5.3106 25.5205 5.86348 24.9675L6.86887 23.9622C7.80655 23.0245 8.33333 21.7527 8.33333 20.4267V15.8337C8.33333 9.39034 13.5567 4.16699 20 4.16699C26.4433 4.16699 31.6667 9.39033 31.6667 15.8337V20.4267C31.6667 21.7527 32.1935 23.0245 33.1312 23.9622L34.1365 24.9675C34.6893 25.5205 35 26.2703 35 27.0522C35 28.6803 33.68 30.0003 32.0518 30.0003Z" stroke="currentColor" stroke-width="2.5" stroke-linecap="round" stroke-linejoin="round"/>
</svg>
